# xmcd
#
# Track frame offsets:
#	150
#	13269
#	26889
#	36651
#	47355
#	57962
#	69899
#	82811
#	95498
#	109028
#	119855
#	132307
#	149521
#	162078
#	175910
#	187460
#	199159
#	210706
#	222913
#	242195
#
# Disc length: 3334
#
# Revision: 2
# Processed by: cddbd v1.5.1PL0 Copyright (c) Steve Scherf et al.
# Submitted via: audiograbber 1.80
# Normalized: r1:DSETVAR2
#
DISCID=340d0414
DTITLE=Various Artist - The Country Superstars (20 Golden Hits)
DYEAR=1900
DGENRE=
TTITLE0=Kenny Rogers - Ruby don't take your love to town
TTITLE1=Lynn Anderson - Rose garden
TTITLE2=Willie Nelson - Building heartaches
TTITLE3=Dolly Parton - Honky Tonk Angels
TTITLE4=Waylon Jennings - Lorena
TTITLE5=Patsy Cline - Walking after midnight
TTITLE6=Johnny Cash - Folsom Prison blues
TTITLE7=Billy Joe Spears - Sunshine
TTITLE8=Alabama - Patches
TTITLE9=The Everly Brothers - All I have to do is dream
TTITLE10=Kenny Rogers - Ruben James
TTITLE11=Lynn Anderson - Blue Bayou
TTITLE12=Johnny Paycheck - I am not looking back anymore
TTITLE13=George Jones - A good year for the roses
TTITLE14=Dolly Parton - Makin' believe
TTITLE15=Oak Ridge Boys - No one cared so much
TTITLE16=Patsy Cline - I've loved and lost again
TTITLE17=Johnny Cash - You're the nearest thing to heaven
TTITLE18=Alabama - I want to be with you tonight
TTITLE19=Freddy Fender - Wasted days and wasted nights
EXTD=
EXTT0=
EXTT1=
EXTT2=
EXTT3=
EXTT4=
EXTT5=
EXTT6=
EXTT7=
EXTT8=
EXTT9=
EXTT10=
EXTT11=
EXTT12=
EXTT13=
EXTT14=
EXTT15=
EXTT16=
EXTT17=
EXTT18=
EXTT19=
PLAYORDER=
